<svg xmlns="http://www.w3.org/2000/svg" viewBox="0 0 512 512">
  <defs>
    <linearGradient id="grad1" x1="0%" y1="0%" x2="100%" y2="100%">
      <stop offset="0%" style="stop-color:#4F46E5;stop-opacity:1" />
      <stop offset="100%" style="stop-color:#7C3AED;stop-opacity:1" />
    </linearGradient>
  </defs>
  <rect width="512" height="512" rx="100" fill="url(#grad1)" />
  <path d="M368 160h-48v-16c0-35.3-28.7-64-64-64s-64 28.7-64 64v16h-48c-17.7 0-32 14.3-32 32v256c0 17.7 14.3 32 32 32h224c17.7 0 32-14.3 32-32V192c0-17.7-14.3-32-32-32zm-160-16c0-17.7 14.3-32 32-32s32 14.3 32 32v16h-64v-16zm192 288H112V192h288v240z" fill="white"/>
  <text x="50%" y="85%" dominant-baseline="middle" text-anchor="middle" font-family="Arial, sans-serif" font-weight="bold" font-size="60" fill="white">eStore</text>
</svg>
